<svg width="66" height="76" viewBox="0 0 66 76" fill="none" xmlns="http://www.w3.org/2000/svg">
<rect x="0.866025" y="1.5" width="35.6253" height="35.6253" transform="matrix(0.866025 0.5 -2.20305e-08 1 0.772459 18.6809)" stroke="black" stroke-width="2"/>
<rect x="0.866025" y="1.5" width="35.6253" height="35.6253" rx="2" transform="matrix(0.866025 0.5 -2.20305e-08 1 9.65533 13.3486)" stroke="black" stroke-width="2"/>
<rect x="0.866025" y="1.5" width="35.6253" height="35.6253" rx="4" transform="matrix(0.866025 0.5 -2.20305e-08 1 17.0647 9.2746)" stroke="black" stroke-width="2"/>
<rect x="0.866025" y="1.5" width="35.6253" height="35.6253" rx="9" transform="matrix(0.866025 0.5 -2.20305e-08 1 25.9476 3.94229)" stroke="black" stroke-width="2"/>
<rect x="0.866025" y="1.5" width="35.6253" height="35.6253" rx="17.8127" transform="matrix(0.866025 0.5 -2.20305e-08 1 33.3569 -0.131743)" stroke="black" stroke-width="2"/>
</svg>
