<svg width="59" height="68" viewBox="0 0 59 68" fill="none" xmlns="http://www.w3.org/2000/svg">
<rect x="0.433013" y="0.75" width="36.6253" height="36.6253" rx="4.5" transform="matrix(0.866025 0.5 -2.20305e-08 1 0.543242 10.5824)" stroke="black"/>
<path d="M2.02313 13.4312L27.1191 1.48883" stroke="black"/>
<path d="M31.3862 64.7006L56.4822 52.7582" stroke="black"/>
<path fill-rule="evenodd" clip-rule="evenodd" d="M53.7765 16.2111L29.8522 2.39841C27.9391 1.29384 26.3881 2.18927 26.3881 4.39841L26.3881 23.8763L25.5221 23.3763V3.89841C25.5221 1.13698 27.4608 0.0176975 29.8522 1.39841L53.7765 15.2111C56.1679 16.5918 58.1066 19.9497 58.1066 22.7111V50.3364C58.1066 53.0978 56.1679 54.2171 53.7765 52.8364L34.6944 41.8194V40.8194L53.7765 51.8364C55.6896 52.941 57.2406 52.0456 57.2406 49.8364V22.2111C57.2406 20.0019 55.6896 17.3156 53.7765 16.2111ZM25.5221 25.2523V26.2529L26.3881 26.7529V25.7523L25.5221 25.2523ZM25.5221 28.1289L26.3881 28.6289L26.3881 32.0237C26.3881 34.2329 27.939 36.9192 29.8522 38.0238L30.5813 38.4447V39.4447L29.8522 39.0238C27.4608 37.643 25.5221 34.2852 25.5221 31.5237V28.1289ZM33.0697 39.8814L32.2059 39.3827V40.3827L33.0697 40.8814V39.8814Z" fill="black"/>
</svg>
